<svg width="33" height="34" viewBox="0 0 33 34" fill="none" xmlns="http://www.w3.org/2000/svg">
<g filter="url(#filter0_d_6_3)">
<path d="M27.5349 2.46508C26.0472 0.977385 24.7242 1.41613 24.7242 1.41613L13.0616 13.0693L11.1 18.9L16.928 16.9371L28.5839 5.27578C28.5839 5.27578 29.0213 3.95278 27.5349 2.46508V2.46508ZM17.3168 15.6667L16.6809 16.3012L14.6924 16.9762C14.5383 16.6011 14.3096 16.2612 14.0201 15.9772C13.7358 15.688 13.396 15.4593 13.0211 15.3049L13.6961 13.3164L14.3319 12.6819C14.3319 12.6819 15.3795 12.5617 16.4069 13.5904C17.4356 14.6178 17.3168 15.6667 17.3168 15.6667ZM24.6 22.95H7.05001V5.39998H13.8L16.5 2.69998H7.05001C5.56501 2.69998 4.35001 3.91498 4.35001 5.39998V22.95C4.35001 24.435 5.56501 25.65 7.05001 25.65H24.6C26.085 25.65 27.3 24.435 27.3 22.95V13.5L24.6 16.2V22.95Z" fill="url(#paint0_linear_6_3)"/>
</g>
<defs>
<filter id="filter0_d_6_3" x="-1" y="0" width="35" height="35" filterUnits="userSpaceOnUse" color-interpolation-filters="sRGB">
<feFlood flood-opacity="0" result="BackgroundImageFix"/>
<feColorMatrix in="SourceAlpha" type="matrix" values="0 0 0 0 0 0 0 0 0 0 0 0 0 0 0 0 0 0 127 0" result="hardAlpha"/>
<feOffset dy="4"/>
<feGaussianBlur stdDeviation="2"/>
<feComposite in2="hardAlpha" operator="out"/>
<feColorMatrix type="matrix" values="0 0 0 0 0 0 0 0 0 0 0 0 0 0 0 0 0 0 0.25 0"/>
<feBlend mode="normal" in2="BackgroundImageFix" result="effect1_dropShadow_6_3"/>
<feBlend mode="normal" in="SourceGraphic" in2="effect1_dropShadow_6_3" result="shape"/>
</filter>
<linearGradient id="paint0_linear_6_3" x1="4.35001" y1="14.925" x2="28.6439" y2="14.925" gradientUnits="userSpaceOnUse">
<stop stop-color="#FFD549"/>
<stop offset="0.208333" stop-color="#FFE164"/>
<stop offset="1" stop-color="#24FF78"/>
</linearGradient>
</defs>
</svg>
