<svg width="25" height="25" viewBox="0 0 25 25" fill="none" xmlns="http://www.w3.org/2000/svg">
<path d="M4.00567 2.81729L22.0657 11.4547C22.2482 11.5419 22.4023 11.6789 22.5102 11.85C22.6182 12.0211 22.6754 12.2193 22.6754 12.4216C22.6754 12.6239 22.6182 12.822 22.5102 12.9931C22.4023 13.1642 22.2482 13.3013 22.0657 13.3884L4.00567 22.0259C3.82053 22.1145 3.61381 22.1482 3.41011 22.1227C3.2064 22.0973 3.0143 22.0139 2.85664 21.8824C2.69898 21.751 2.58241 21.577 2.5208 21.3811C2.45918 21.1853 2.45512 20.9759 2.50909 20.7779L4.31595 14.1539C4.33807 14.0727 4.38359 13.9998 4.44685 13.9443C4.51011 13.8888 4.58829 13.8532 4.67167 13.8419L13.4231 12.653C13.4597 12.6478 13.4943 12.6332 13.5236 12.6107C13.5529 12.5882 13.5758 12.5585 13.5902 12.5244L13.6057 12.4713C13.6124 12.4234 13.6028 12.3747 13.5784 12.333C13.554 12.2913 13.5161 12.2591 13.4711 12.2416L13.424 12.2287L4.68109 11.0399C4.59788 11.0284 4.51987 10.9927 4.45678 10.9372C4.39369 10.8817 4.3483 10.8089 4.32624 10.7279L2.50909 4.06615C2.4549 3.86803 2.4588 3.65851 2.52032 3.46255C2.58184 3.26658 2.69839 3.09243 2.85609 2.96083C3.01379 2.82924 3.20599 2.74574 3.4098 2.72029C3.61362 2.69484 3.82045 2.72851 4.00567 2.81729Z" fill="url(#paint0_linear_6_115)"/>
<defs>
<linearGradient id="paint0_linear_6_115" x1="2.47113" y1="13.5583" x2="22.6754" y2="13.5583" gradientUnits="userSpaceOnUse">
<stop stop-color="#FFD549"/>
<stop offset="0.208333" stop-color="#FFE164"/>
<stop offset="1" stop-color="#24FF78"/>
</linearGradient>
</defs>
</svg>
